<svg width="29" height="19" viewBox="0 0 29 19" fill="none" xmlns="http://www.w3.org/2000/svg">
<path opacity="0.199151" fill-rule="evenodd" clip-rule="evenodd" d="M24.5841 15.491L26.382 16.7881C26.9227 17.1783 26.9227 17.8089 26.382 18.199C26.1123 18.3936 25.7583 18.4914 25.4042 18.4914C25.0502 18.4914 24.6961 18.3936 24.4265 18.199L20.6827 15.498L19.8723 14.9133L18.0122 13.5712L17.9168 13.5024L14.4562 11.0056C14.4178 11.0071 14.3792 11.0079 14.3404 11.0079C13.1967 11.0079 12.2659 10.3364 12.2659 9.51119C12.2659 9.48317 12.267 9.45533 12.2691 9.42768L7.8169 6.21546L5.3953 4.46832L2.29881 2.23425C1.75807 1.84411 1.75807 1.2135 2.29881 0.823366C2.83956 0.433227 3.7136 0.433227 4.25434 0.823366L6.62339 2.53259L8.64945 3.99437L14.2247 8.01679C14.263 8.01527 14.3016 8.01449 14.3404 8.01449C15.4841 8.01449 16.4149 8.68601 16.4149 9.51119C16.4149 9.53921 16.4138 9.56705 16.4117 9.5947L21.8279 13.5024L24.5841 15.491ZM9.62832 3.28912L13.4965 6.07996C13.7717 6.04504 14.0511 6.0191 14.3401 6.0191C17.0093 6.0191 19.1806 7.58564 19.1806 9.51139C19.1806 9.71993 19.1446 9.92148 19.0962 10.12L22.8053 12.7971L23.9587 13.6293C26.0636 12.2444 27.4134 10.7287 27.9874 10.0073C28.2308 9.69997 28.2308 9.32181 27.9874 9.01448C27.105 7.90493 22.2314 2.34321 13.9667 2.5298C12.3293 2.56073 10.8467 2.81517 9.50247 3.19932L9.62832 3.28912ZM17.0344 14.2778L18.8946 15.6188L19.1781 15.8234C17.8338 16.2075 16.3526 16.4619 14.7152 16.4919C14.6018 16.4949 14.487 16.4959 14.375 16.4959C6.26658 16.4959 1.56445 11.1028 0.693173 10.0072C0.449769 9.69987 0.449769 9.32171 0.693173 9.01438C1.26711 8.29397 2.6169 6.77832 4.72179 5.39338L6.83913 6.922L9.58573 8.90263C9.53594 9.10119 9.49998 9.30275 9.49998 9.51129C9.49998 11.437 11.6713 13.0036 14.3404 13.0036C14.6294 13.0036 14.9088 12.9776 15.184 12.9417L16.939 14.2079L17.0344 14.2778Z" fill="black"/>
<mask id="mask0_277_1464" style="mask-type:luminance" maskUnits="userSpaceOnUse" x="0" y="0" width="29" height="19">
<path fill-rule="evenodd" clip-rule="evenodd" d="M24.5841 15.491L26.382 16.7881C26.9227 17.1783 26.9227 17.8089 26.382 18.199C26.1123 18.3936 25.7583 18.4914 25.4042 18.4914C25.0502 18.4914 24.6961 18.3936 24.4265 18.199L20.6827 15.498L19.8723 14.9133L18.0122 13.5712L17.9168 13.5024L14.4562 11.0056C14.4178 11.0071 14.3792 11.0079 14.3404 11.0079C13.1967 11.0079 12.2659 10.3364 12.2659 9.51119C12.2659 9.48317 12.267 9.45533 12.2691 9.42768L7.8169 6.21546L5.3953 4.46832L2.29881 2.23425C1.75807 1.84411 1.75807 1.2135 2.29881 0.823366C2.83956 0.433227 3.7136 0.433227 4.25434 0.823366L6.62339 2.53259L8.64945 3.99437L14.2247 8.01679C14.263 8.01527 14.3016 8.01449 14.3404 8.01449C15.4841 8.01449 16.4149 8.68601 16.4149 9.51119C16.4149 9.53921 16.4138 9.56705 16.4117 9.5947L21.8279 13.5024L24.5841 15.491ZM9.62832 3.28912L13.4965 6.07996C13.7717 6.04504 14.0511 6.0191 14.3401 6.0191C17.0093 6.0191 19.1806 7.58564 19.1806 9.51139C19.1806 9.71993 19.1446 9.92148 19.0962 10.12L22.8053 12.7971L23.9587 13.6293C26.0636 12.2444 27.4134 10.7287 27.9874 10.0073C28.2308 9.69997 28.2308 9.32181 27.9874 9.01448C27.105 7.90493 22.2314 2.34321 13.9667 2.5298C12.3293 2.56073 10.8467 2.81517 9.50247 3.19932L9.62832 3.28912ZM17.0344 14.2778L18.8946 15.6188L19.1781 15.8234C17.8338 16.2075 16.3526 16.4619 14.7152 16.4919C14.6018 16.4949 14.487 16.4959 14.375 16.4959C6.26658 16.4959 1.56445 11.1028 0.693173 10.0072C0.449769 9.69987 0.449769 9.32171 0.693173 9.01438C1.26711 8.29397 2.6169 6.77832 4.72179 5.39338L6.83913 6.922L9.58573 8.90263C9.53594 9.10119 9.49998 9.30275 9.49998 9.51129C9.49998 11.437 11.6713 13.0036 14.3404 13.0036C14.6294 13.0036 14.9088 12.9776 15.184 12.9417L16.939 14.2079L17.0344 14.2778Z" fill="white"/>
</mask>
<g mask="url(#mask0_277_1464)">
</g>
</svg>
